{"title":"LEGO.Scooby.Doo.Haunted.Hollywood.2016.BRRip.480p.x264-VYTO [P2P","uid":14451088,"size":295425475,"categoryP":"video","categoryS":"movies","magnet":"?xt=urn:btih:dfdbc9be0078326607cde246d7ac7b65f1f817eb&amp;dn=LEGO.Scooby.Doo.Haunted.Hollywood.2016.BRRip.480p.x264-VYTO+%5BP2P&amp;tr=udp%3A%2F%2Ftracker.leechers-paradise.org%3A6969&amp;tr=udp%3A%2F%2Fzer0day.ch%3A1337&amp;tr=udp%3A%2F%2Fopen.demonii.com%3A1337&amp;tr=udp%3A%2F%2Ftracker.coppersurfer.tk%3A6969&amp;tr=udp%3A%2F%2Fexodus.desync.com%3A6969","seeders":2,"leechers":1,"uploader":"VYTOP2PDL","files":7,"time":1461751926,"description":"____    ____ ____    ____ .___________.  ______   \r\n     /   /      /   / |           | /  __    \r\n    /   /      /   /  `---|  |----`|  |  |  | \r\n        /     _    _/       |  |     |  |  |  | \r\n       /        |  |         |  |     |  `--'  | \r\n    __/         |__|         |__|      ______/  \r\n                                                  \r\nPresenting Small Encodes with quality for years!\r\n                                                                                                   \r\n                                                                                                   \r\n\r\n\r\nLEGO.Scooby.Doo.Haunted.Hollywood.2016.BRRip.480p.x264-VYTO\r\n\r\n\r\nGenre: Animation, Comedy, Family  \nhttp://www.imdb.com/title/tt5548284/\r\n\r\n\r\nFormat                                   : MPEG-4\r\nFile size                                : 276 MiB\r\nDuration                                 : 1h 15mn\r\nOverall bit rate                         : 513 Kbps\r\n\r\nVideo\r\nFormat                                   : AVC\r\nBit rate                                 : 470 Kbps\r\nWidth                                    : 720 pixels\r\nHeight                                   : 400 pixels\r\nDisplay aspect ratio                     : 16:9\r\nFrame rate mode                          : Constant\r\nFrame rate                               : 23.976 fps\r\nBit depth                                : 8 bits\r\nStream size                              : 253 MiB (92%)\r\nWriting library                          : x264\r\n\r\nAudio\r\nFormat                                   : AAC\r\nBit rate                                 : 40.0 Kbps\r\nChannel(s)                               : 2 channels\r\nChannel positions                        : Front: L R\r\nSampling rate                            : 48.0 KHz \r\nStream size                              : 21.5 MiB (8%)\r\nLanguage                                 : English\r\n\r\nSubtitle                                 : Yes (English)\r\n\r\nScreen Shots: (Click links to view)\r\n \nhttps://ititli.com/Xxw \nhttps://ititli.com/Xx2 \nhttps://ititli.com/Xx6 \nhttps://ititli.com/Xx8 \nhttps://ititli.com/Xxe \nhttps://ititli.com/Xxj \nhttps://ititli.com/Xxk \nhttps://ititli.com/Xxo \nhttps://ititli.com/XxG\r\n\r\n----------------------------------------------------------------------------------------------------\r\n\r\n\r\nEncoder Notes: Looking For Early Access To Anything You Can Provide WEBDL, DVDScr, DVDR, BluRay,\r\nDirect Audio, Music Releases and Seedboxes. If You Got anything to offer please contact us.\r\n\r\nSupport us by donating BC - 1FgwdzPsd1y25Gea8wP1qni35uGCtmkRCD\r\n\r\n\r\nFind us and join us!","torrent":{"xt":"urn:btih:dfdbc9be0078326607cde246d7ac7b65f1f817eb","amp;dn":"LEGO.Scooby.Doo.Haunted.Hollywood.2016.BRRip.480p.x264-VYTO+%5BP2P","amp;tr":["udp%3A%2F%2Ftracker.leechers-paradise.org%3A6969","udp%3A%2F%2Fzer0day.ch%3A1337","udp%3A%2F%2Fopen.demonii.com%3A1337","udp%3A%2F%2Ftracker.coppersurfer.tk%3A6969","udp%3A%2F%2Fexodus.desync.com%3A6969"],"infoHash":"dfdbc9be0078326607cde246d7ac7b65f1f817eb","infoHashBuffer":{"type":"Buffer","data":[223,219,201,190,0,120,50,102,7,205,226,70,215,172,123,101,241,248,23,235]},"announce":[],"urlList":[]}}